<?xml version="1.0" encoding="iso-8859-1"?>
<!-- Generator: Adobe Illustrator 19.0.0, SVG Export Plug-In . SVG Version: 6.00 Build 0)  -->
<svg version="1.1" id="Layer_1" xmlns="http://www.w3.org/2000/svg" xmlns:xlink="http://www.w3.org/1999/xlink" x="0px" y="0px"
	 viewBox="0 0 512 512" style="enable-background:new 0 0 512 512;" xml:space="preserve">
<path style="fill:#2D4452;" d="M256,0C114.616,0,0,114.616,0,256s114.616,256,256,256s256-114.616,256-256S397.384,0,256,0z"/>
<path style="fill:#233540;" d="M468.596,387.492c-0.632-1.676-1.268-3.192-1.916-4.556c-0.48-1.268-0.964-2.468-1.452-3.548
	c-0.468-1.252-0.94-2.42-1.416-3.5c-0.672-1.772-1.344-3.376-2.016-4.804c-0.4-1.032-0.78-2-1.176-2.908
	c-1.432-4.996-2.924-9.336-4.44-12.696c-0.632-1.676-1.268-3.192-1.912-4.548c-0.48-1.272-0.964-2.472-1.452-3.556
	c-0.472-1.252-0.944-2.416-1.42-3.484c-0.672-1.78-1.344-3.388-2.016-4.82c-0.464-1.22-0.92-2.372-1.4-3.416
	c-0.652-1.724-1.304-3.276-1.96-4.664c-0.468-1.248-0.94-2.416-1.416-3.48c-0.476-1.264-0.956-2.436-1.436-3.528
	c-0.676-1.792-1.356-3.412-2.032-4.848c-0.444-1.172-0.904-2.272-1.344-3.288c-0.672-1.772-1.344-3.368-2.016-4.796
	c-0.464-1.236-0.936-2.4-1.416-3.452c-0.476-1.26-0.952-2.424-1.424-3.516c-0.692-1.796-1.372-3.428-2.052-4.884
	c-0.364-0.952-0.728-1.844-1.084-2.692c-1.436-4.976-2.928-9.304-4.436-12.688c-0.664-1.768-1.332-3.352-2-4.768
	c-0.472-1.248-0.944-2.42-1.416-3.484c-0.644-1.7-1.288-3.236-1.932-4.6c-0.48-1.268-0.964-2.472-1.448-3.548
	c-0.456-1.232-0.92-2.368-1.396-3.42c-0.684-1.808-1.368-3.436-2.048-4.892c-0.452-1.192-0.916-2.32-1.376-3.344
	c-0.66-1.752-1.316-3.324-1.98-4.736c-0.476-1.26-0.956-2.456-1.44-3.528c-0.468-1.24-0.94-2.392-1.416-3.46
	c-0.676-1.796-1.36-3.416-2.036-4.868c-0.428-1.144-0.876-2.22-1.312-3.212c-0.68-1.804-1.364-3.424-2.044-4.876
	c-0.46-1.208-0.916-2.348-1.388-3.388c-0.48-1.28-0.964-2.452-1.448-3.552c-0.348-0.916-0.696-1.8-1.044-2.628
	c-1.708-5.728-3.456-10.656-5.188-14.344c-0.436-1.144-0.884-2.216-1.312-3.208c-0.68-1.808-1.364-3.428-2.044-4.88
	c-0.46-1.216-0.924-2.36-1.4-3.404c-0.652-1.728-1.308-3.284-1.964-4.676c-0.468-1.268-0.952-2.468-1.436-3.544
	c-0.468-1.24-0.94-2.388-1.416-3.456c-0.676-1.792-1.356-3.412-2.032-4.856c-0.444-1.168-0.896-2.268-1.344-3.28
	c-0.664-1.76-1.328-3.344-1.996-4.764c-0.472-1.248-0.944-2.424-1.42-3.488c-0.472-1.26-0.948-2.42-1.424-3.504
	c-0.684-1.804-1.368-3.44-2.052-4.896c-0.44-1.16-0.892-2.244-1.328-3.248c-0.676-1.788-1.352-3.4-2.032-4.836
	c-0.384-0.996-0.752-1.928-1.132-2.808c-1.44-5.008-2.94-9.36-4.456-12.736c-0.472-1.252-0.944-2.408-1.42-3.484
	c-0.684-1.808-1.368-3.444-2.052-4.896c-0.432-1.156-0.884-2.24-1.324-3.24c-0.676-1.792-1.356-3.408-2.032-4.844
	c-0.452-1.192-0.908-2.312-1.364-3.336c-0.664-1.752-1.328-3.332-1.992-4.752c-0.456-1.212-0.92-2.356-1.388-3.396
	c-0.484-1.288-0.972-2.476-1.46-3.584c-0.68-1.8-1.364-3.428-2.04-4.876c-0.444-1.164-0.9-2.252-1.34-3.26
	c-0.672-1.784-1.352-3.388-2.028-4.824c-0.448-1.204-0.916-2.34-1.38-3.376c-0.484-1.28-0.968-2.456-1.452-3.56
	c-0.684-1.796-1.364-3.428-2.04-4.876c-0.444-1.168-0.892-2.256-1.336-3.264c-0.68-1.792-1.36-3.416-2.04-4.86
	c-0.44-1.168-0.9-2.264-1.34-3.276c-1.208-3.2-2.42-5.88-3.624-7.888h-12h-148c-9.56,16-19,74.644-19,100
	c0,15.252,2.132,29.836,6.004,43.348c1.888,7.172,4.252,14.06,7.064,20.604c0.544,1.368,1.084,2.724,1.66,4.06
	c0.528,1.324,1.06,2.636,1.604,3.928c0.548,1.392,1.108,2.772,1.696,4.136c0.532,1.356,1.084,2.704,1.648,4.032
	c0.536,1.352,1.084,2.696,1.648,4.024c0.54,1.368,1.092,2.728,1.668,4.068c0.532,1.348,1.076,2.688,1.64,4.008
	c0.54,1.364,1.084,2.72,1.664,4.06c0.532,1.352,1.08,2.696,1.648,4.024c0.524,1.328,1.056,2.644,1.604,3.94
	c0.556,1.392,1.104,2.768,1.7,4.128c0.532,1.356,1.08,2.7,1.636,4.028c0.548,1.368,1.092,2.728,1.668,4.068
	c0.544,1.36,1.084,2.708,1.652,4.036c0.532,1.348,1.084,2.684,1.64,4.004c0.364,0.916,0.712,1.848,1.088,2.752
	c1.4,4.336,3,8.54,4.752,12.62c0.536,1.364,1.084,2.724,1.66,4.06c0.536,1.36,1.084,2.704,1.652,4.036
	c0.536,1.356,1.084,2.7,1.648,4.024c0.54,1.368,1.084,2.724,1.664,4.06c0.532,1.352,1.08,2.688,1.644,4.008
	c0.528,1.344,1.068,2.672,1.628,3.984c0.54,1.376,1.084,2.748,1.672,4.092c0.54,1.364,1.084,2.716,1.66,4.052
	c0.536,1.356,1.084,2.708,1.644,4.036c0.548,1.36,1.088,2.72,1.66,4.056c0.54,1.348,1.084,2.688,1.644,4.008
	c0.544,1.36,1.084,2.712,1.656,4.044c0.536,1.36,1.084,2.712,1.656,4.044c0.52,1.324,1.06,2.64,1.608,3.936
	c0.376,0.952,0.74,1.916,1.132,2.856c1.4,4.328,2.996,8.524,4.744,12.596c0.54,1.372,1.088,2.732,1.664,4.072
	c0.532,1.348,1.084,2.688,1.644,4.012c0.54,1.372,1.084,2.724,1.664,4.06c0.52,1.328,1.052,2.636,1.6,3.932
	c0.552,1.388,1.104,2.768,1.696,4.128c0.536,1.36,1.084,2.708,1.656,4.04c0.532,1.352,1.08,2.696,1.636,4.02
	c0.548,1.372,1.088,2.724,1.664,4.068c0.54,1.352,1.084,2.688,1.644,4.016c0.548,1.364,1.088,2.72,1.664,4.06
	c0.54,1.352,1.084,2.696,1.648,4.024c0.524,1.324,1.056,2.64,1.612,3.94c0.548,1.392,1.096,2.772,1.692,4.132
	c0.276,0.7,0.54,1.412,0.824,2.1V444h-60c-2.212,0-4,1.792-4,4c0,1.056,0.416,1.992,1.084,2.708
	c-0.136,0.416-0.252,0.832-0.252,1.292c0,1.38,0.744,2.536,1.804,3.256c-0.056,0.252-0.148,0.476-0.148,0.744
	c0,1.38,0.744,2.536,1.804,3.256c-0.056,0.252-0.148,0.476-0.148,0.744c0,1.38,0.744,2.536,1.804,3.252
	c-0.06,0.252-0.152,0.484-0.152,0.752c0,1.38,0.744,2.536,1.8,3.256c-0.052,0.252-0.144,0.476-0.144,0.744
	c0,1.38,0.744,2.536,1.796,3.256c-0.048,0.252-0.14,0.476-0.14,0.744c0,1.38,0.744,2.536,1.796,3.256
	c-0.048,0.252-0.144,0.476-0.144,0.744c0,1.38,0.748,2.536,1.8,3.256c-0.048,0.252-0.148,0.476-0.148,0.744
	c0,1.38,0.752,2.536,1.804,3.256c-0.048,0.252-0.148,0.476-0.148,0.744c0,1.38,0.752,2.536,1.804,3.256
	c-0.048,0.252-0.148,0.476-0.148,0.744c0,1.38,0.752,2.536,1.804,3.256c-0.048,0.252-0.148,0.476-0.148,0.744
	c0,1.38,0.752,2.536,1.8,3.252c-0.048,0.252-0.148,0.484-0.148,0.752c0,1.38,0.752,2.536,1.804,3.256
	c-0.048,0.252-0.148,0.476-0.148,0.744c0,1.38,0.752,2.536,1.804,3.256c-0.048,0.252-0.148,0.476-0.148,0.744
	c0,1.38,0.752,2.536,1.804,3.256c-0.048,0.252-0.148,0.476-0.148,0.744c0,0.056,0.02,0.1,0.024,0.16c14.324,2.468,29,3.832,44,3.832
	c90.448,0,169.884-46.952,215.416-117.764c-0.444-1.124-0.908-2.204-1.36-3.172C469.58,389.788,469.084,388.58,468.596,387.492z"/>
<g>
	<path style="fill:#F5F5F5;" d="M320,444h-60V284c0-2.208-1.788-4-4-4s-4,1.792-4,4v160h-60c-2.212,0-4,1.792-4,4s1.788,4,4,4h128
		c2.212,0,4-1.792,4-4S322.212,444,320,444z"/>
	<path style="fill:#F5F5F5;" d="M356,160c0-25.356-10.412-84-20-100H176c-9.56,16-20,74.644-20,100H356z"/>
</g>
<path style="fill:#E6E6E6;" d="M336,60h-12c9.588,16,20,74.644,20,100h12C356,134.644,345.588,76,336,60z"/>
<path style="fill:#C23527;" d="M156,160c0,71.324,45.964,128,100,128c54.072,0,100-56.676,100-128H156z"/>
<path style="fill:#B33124;" d="M344,160c0,68.668-42.58,123.736-94,127.744c1.988,0.156,3.988,0.256,6,0.256
	c54.072,0,100-56.676,100-128H344z"/>
<g>
	<path style="fill:#FFFFFF;" d="M174.984,128h32.404c0.888-5.456,1.888-11.008,2.948-16.332l-32.24-1.9
		C176.94,115.796,175.884,121.968,174.984,128z"/>
	<path style="opacity:0.2;fill:#FFFFFF;enable-background:new    ;" d="M211.096,198.792l-28.416,14.952
		c7.148,16.924,17.484,31.296,29.848,41.528l24.78-21.48C226.84,226.892,217.264,214.612,211.096,198.792z"/>
	<path style="opacity:0.2;fill:#FFFFFF;enable-background:new    ;" d="M208.232,190.16c-1.252-4.344-2.288-8.86-3.004-13.592
		l-32.036,1.688c0.916,7.048,2.324,13.896,4.208,20.468L208.232,190.16z"/>
</g>
<g>
</g>
<g>
</g>
<g>
</g>
<g>
</g>
<g>
</g>
<g>
</g>
<g>
</g>
<g>
</g>
<g>
</g>
<g>
</g>
<g>
</g>
<g>
</g>
<g>
</g>
<g>
</g>
<g>
</g>
</svg>
