<?xml version="1.0" encoding="UTF-8" standalone="no"?>
<svg
   xmlns:dc="http://purl.org/dc/elements/1.1/"
   xmlns:cc="http://creativecommons.org/ns#"
   xmlns:rdf="http://www.w3.org/1999/02/22-rdf-syntax-ns#"
   xmlns:svg="http://www.w3.org/2000/svg"
   xmlns="http://www.w3.org/2000/svg"
   xmlns:sodipodi="http://sodipodi.sourceforge.net/DTD/sodipodi-0.dtd"
   xmlns:inkscape="http://www.inkscape.org/namespaces/inkscape"
   viewBox="0 0 91 89"
   version="1.1"
   id="svg164"
   sodipodi:docname="vivaldi.svg"
   inkscape:version="0.92.3 (unknown)"
   width="91"
   height="89">
  <metadata
     id="metadata170">
    <rdf:RDF>
      <cc:Work
         rdf:about="">
        <dc:format>image/svg+xml</dc:format>
        <dc:type
           rdf:resource="http://purl.org/dc/dcmitype/StillImage" />
        <dc:title></dc:title>
      </cc:Work>
    </rdf:RDF>
  </metadata>
  <defs
     id="defs168" />
  <sodipodi:namedview
     pagecolor="#ffffff"
     bordercolor="#666666"
     borderopacity="1"
     objecttolerance="10"
     gridtolerance="10"
     guidetolerance="10"
     inkscape:pageopacity="0"
     inkscape:pageshadow="2"
     inkscape:window-width="1920"
     inkscape:window-height="1015"
     id="namedview166"
     showgrid="false"
     inkscape:zoom="1.6015625"
     inkscape:cx="256"
     inkscape:cy="256"
     inkscape:window-x="0"
     inkscape:window-y="0"
     inkscape:window-maximized="1"
     inkscape:current-layer="svg164" />
  <path
     d="m 48.890244,79.0317 c 15.813576,0 24.600659,0 30.35826,-5.73141 5.74174,-5.73142 5.74174,-14.49526 5.74174,-30.27652 0,-15.78127 0,-24.54509 -5.74174,-30.27652 C 73.490903,7.0317 64.70382,7.0317 48.890244,7.0317 c -15.813576,0 -24.600659,0 -30.35826,5.73143 -5.74174,5.73142 -5.74174,14.49525 -5.74174,30.27652 0,15.78125 0,24.54508 5.74174,30.2765 5.757601,5.71555 14.544684,5.71555 30.35826,5.71555 z"
     id="path153"
     inkscape:connector-curvature="0"
     style="fill:#ef3939;stroke-width:0.15868837" />
  <linearGradient
     id="a"
     gradientUnits="userSpaceOnUse"
     x1="170.69901"
     y1="109.389"
     x2="387.59601"
     y2="485.065"
     gradientTransform="matrix(0.1586116,0,0,0.15876516,8.285675,2.3005)">
    <stop
       offset="0"
       stop-opacity=".2"
       id="stop155" />
    <stop
       offset=".791"
       stop-opacity=".05"
       id="stop157" />
  </linearGradient>
  <path
     d="M 72.364761,29.71925 C 68.907028,23.6703 63.117704,18.95497 55.837432,17.00216 41.387915,13.14416 26.54187,21.68572 22.671747,36.08573 c -1.950923,7.23969 -0.745475,14.59051 2.775703,20.59185 0.04758,0.0794 0.09517,0.17464 0.158611,0.25402 l 12.72065,21.98897 c 2.109535,0.0635 4.393542,0.0794 6.852022,0.0794 h 3.584622 c 7.026494,0 12.673067,0 17.288664,-0.50805 5.757601,-0.63506 9.881503,-2.04807 13.069596,-5.22338 4.64732,-4.63594 5.535549,-11.27232 5.710019,-22.02072 C 77.40861,38.41959 72.380622,29.73514 72.364761,29.71926 Z"
     id="path160"
     style="fill:url(#a);stroke-width:0.15868837"
     inkscape:connector-curvature="0" />
  <path
     d="m 67.891914,23.98782 c -10.547672,-10.54201 -27.661863,-10.54201 -38.225396,0 -10.547671,10.54201 -10.547671,27.62515 0,38.15128 10.547672,10.542 27.661863,10.542 38.225396,0 10.563532,-10.54202 10.563532,-27.62514 0,-38.15128 z m -1.617839,12.39956 c -4.456986,7.73187 -8.913972,15.46373 -13.370958,23.21147 -0.82478,1.44477 -2.030228,2.3021 -3.679789,2.42911 -1.839894,0.12701 -3.299121,-0.65094 -4.234929,-2.23859 -2.823287,-4.84233 -5.614851,-9.71643 -8.406415,-14.57465 -1.697144,-2.95302 -3.410149,-5.90605 -5.107294,-8.87496 -1.713005,-2.9848 0.222057,-6.62051 3.648067,-6.79516 1.808172,-0.0953 3.203954,0.74621 4.123902,2.31797 1.253031,2.14333 2.490202,4.31842 3.743234,6.47762 0.904086,1.55591 1.776449,3.12768 2.696397,4.65183 1.332337,2.23859 3.299121,3.49283 5.916212,3.6516 3.695651,0.22227 7.137522,-2.46086 7.581635,-6.38236 0.03172,-0.28578 0.04758,-0.58743 0.06344,-0.73032 -0.01586,-1.27012 -0.253778,-2.34973 -0.761335,-3.34995 -1.379921,-2.76251 0.09517,-5.85843 3.092926,-6.52524 2.442619,-0.53982 4.980404,1.25424 5.297627,3.73098 0.158612,1.06372 -0.06344,2.06394 -0.602724,3.00065 z"
     id="path162"
     inkscape:connector-curvature="0"
     style="fill:#ffffff;stroke-width:0.15868837" />
</svg>
